<?xml version="1.0" standalone="no"?>
<!DOCTYPE svg PUBLIC "-//W3C//DTD SVG 20010904//EN"
 "http://www.w3.org/TR/2001/REC-SVG-20010904/DTD/svg10.dtd">
<svg version="1.0" xmlns="http://www.w3.org/2000/svg"
 width="450.000000pt" height="199.000000pt" viewBox="0 0 450.000000 199.000000"
 preserveAspectRatio="xMidYMid meet">
<g transform="translate(0.000000,199.000000) scale(0.050000,-0.050000)"
fill="#000000" stroke="none">
<path d="M3601 3565 c-100 -39 -120 -116 -95 -365 18 -173 36 -530 43 -852 8
-325 11 -335 121 -377 202 -77 293 30 278 329 -4 94 -11 314 -15 490 -6 298
-32 499 -75 570 -10 17 -26 49 -36 72 -22 50 -136 149 -169 146 -12 0 -36 -6
-52 -13z m200 -217 c32 -66 43 -136 50 -312 4 -124 18 -365 29 -536 31 -459
-14 -566 -199 -471 -55 29 -61 41 -61 127 -1 254 -24 749 -41 868 -65 462 64
651 222 324z"/>
<path d="M1144 3529 c-109 -77 -33 -254 220 -515 187 -193 194 -208 207 -432
18 -330 83 -611 150 -653 44 -27 116 10 127 66 28 139 49 378 51 601 l1 127
150 142 c82 78 150 152 150 165 0 12 28 60 62 106 68 93 67 161 -2 250 -97
122 -280 22 -402 -221 -26 -52 -53 -99 -59 -105 -5 -5 -20 -32 -31 -60 -22
-49 -22 -49 -77 40 -295 473 -415 581 -547 489z m280 -181 c51 -65 94 -129 95
-143 0 -14 9 -25 19 -25 27 0 80 -123 67 -157 -8 -20 -3 -26 17 -19 15 5 46
-7 68 -28 33 -32 34 -36 5 -25 -27 10 -32 6 -23 -18 10 -28 84 -67 95 -50 3 4
49 84 102 177 53 94 104 173 114 177 9 3 17 17 17 31 0 130 213 148 244 20 15
-61 -114 -284 -189 -326 -25 -14 -82 -70 -127 -125 l-83 -99 -14 -344 c-26
-643 -157 -530 -204 176 -16 252 -164 530 -281 530 -41 0 -98 100 -67 119 16
10 18 21 5 29 -11 7 -24 2 -28 -11 -13 -38 -80 84 -91 165 -22 168 102 142
259 -54z"/>
<path d="M3123 3485 c-20 -36 -14 -922 8 -1255 17 -262 74 -321 228 -235 l63
35 -10 190 c-6 105 -19 253 -30 330 -11 77 -24 294 -29 483 -10 367 -20 409
-113 457 -75 39 -94 38 -117 -5z m127 -85 c30 -33 37 -85 42 -335 7 -277 18
-455 39 -595 46 -306 35 -421 -45 -451 -100 -38 -102 -22 -114 781 -4 292 -10
539 -13 550 -19 73 40 106 91 50z"/>
<path d="M5109 3251 c-43 -31 -52 -316 -11 -357 28 -28 43 52 37 196 -5 115
-3 120 43 120 104 0 127 -74 130 -421 2 -339 29 -423 102 -319 16 22 38 51 49
64 12 13 21 33 21 45 0 11 26 34 58 50 75 39 135 -4 150 -109 9 -64 88 -160
131 -160 48 0 70 77 77 267 9 279 51 371 126 280 46 -55 39 -597 -9 -687 -126
-236 -334 -158 -440 165 -23 70 -71 39 -69 -45 4 -291 -331 -301 -343 -10 -2
65 -8 125 -13 133 -4 7 -14 97 -20 200 -14 203 -15 207 -47 188 -14 -9 -17
-60 -9 -147 7 -74 18 -219 25 -324 17 -256 64 -319 233 -319 109 0 151 22 192
102 37 73 78 88 78 28 0 -118 280 -206 391 -122 165 126 176 871 13 933 -101
39 -167 -99 -162 -337 5 -229 -53 -298 -100 -119 -57 219 -218 231 -328 25
l-44 -81 -10 322 c-13 411 -95 554 -251 439z"/>
<path d="M6587 3265 c-23 -15 -36 -142 -26 -265 21 -289 -6 -1062 -54 -1520
-38 -357 -20 -680 37 -680 25 0 396 376 396 402 0 20 315 374 617 694 117 125
223 246 235 269 37 68 229 250 291 276 31 13 57 30 57 38 0 8 23 25 50 37 28
13 50 32 50 44 0 76 -607 495 -737 509 -18 2 -57 14 -86 26 -66 28 -212 68
-277 75 -75 9 -255 45 -390 79 -142 35 -134 34 -163 16z m363 -115 c66 -22
158 -38 340 -61 11 -1 73 -26 137 -56 65 -29 125 -53 133 -53 28 0 381 -215
463 -283 45 -36 96 -77 114 -90 30 -21 28 -29 -17 -77 -114 -122 -160 -122
-292 0 -103 94 -164 129 -329 187 -104 37 -261 84 -349 106 -88 22 -200 53
-249 70 -50 16 -131 27 -180 24 l-91 -6 -6 117 c-10 189 51 211 326 122z m-90
-313 c105 -20 173 -40 590 -168 172 -52 248 -88 307 -144 14 -14 57 -49 95
-78 l69 -52 -91 -97 c-49 -53 -90 -104 -90 -114 0 -10 -73 -93 -162 -186 -233
-242 -620 -675 -687 -768 -32 -44 -88 -111 -124 -150 -37 -38 -98 -106 -136
-150 -68 -77 -70 -78 -73 -30 -8 140 3 526 19 640 10 72 20 272 22 445 2 173
8 335 13 360 5 25 9 147 9 272 -1 292 -23 272 239 220z"/>
<path d="M2500 2892 c-38 -15 -94 -36 -122 -48 -147 -59 -254 -307 -218 -503
49 -271 468 -446 750 -312 157 74 127 254 -48 282 -39 6 -98 17 -130 23 l-57
10 57 47 c32 26 69 48 82 48 13 1 31 12 40 26 9 14 39 40 66 58 186 118 98
334 -150 366 -55 8 -122 17 -150 22 -27 4 -81 -4 -120 -19z m266 -60 c299 -58
275 -175 -85 -411 -201 -132 -197 -148 32 -150 346 -2 344 -204 -1 -227 -368
-23 -588 226 -480 543 72 211 262 298 534 245z"/>
<path d="M2461 2721 c-68 -68 -80 -241 -17 -241 79 0 296 171 296 234 0 64
-216 70 -279 7z m214 -27 c-4 -12 -54 -56 -111 -99 l-104 -76 0 55 c1 75 19
99 100 133 71 30 127 23 115 -13z"/>
<path d="M4315 2817 c-263 -92 -325 -459 -120 -706 168 -202 433 -202 624 0
l102 108 -11 125 c-37 406 -265 588 -595 473z m253 -67 c27 -20 46 -23 63 -9
71 59 184 -129 207 -344 l15 -143 -81 -94 c-298 -340 -753 -2 -601 445 45 131
295 222 397 145z"/>
<path d="M4355 2569 c-91 -50 -71 -212 30 -248 125 -43 189 -29 215 49 51 156
-99 278 -245 199z m153 -41 c47 -18 43 -142 -5 -157 -44 -14 -143 19 -143 48
0 87 70 139 148 109z"/>
<path d="M2554 1785 c-68 -16 -98 -181 -46 -250 21 -28 56 -34 191 -33 211 2
193 40 172 -352 -8 -164 11 -204 121 -251 175 -75 212 -24 215 299 l3 232 60
-1 c33 -1 87 -4 120 -8 177 -16 205 10 181 171 -16 108 -82 150 -226 146 -52
-1 -207 7 -345 20 -137 12 -286 26 -330 29 -44 4 -96 3 -116 -2z m456 -66 c77
-11 199 -21 270 -22 202 -5 223 -18 216 -132 l-6 -95 -170 0 -170 0 -2 -190
c-4 -289 -6 -310 -34 -349 -25 -33 -31 -34 -89 -4 -82 43 -88 70 -81 341 7
280 11 276 -211 275 -186 -1 -200 7 -197 104 3 109 106 125 474 72z"/>
<path d="M5558 1757 c-15 -29 -18 -100 -9 -220 l14 -177 -67 0 c-84 0 -156
-49 -156 -106 1 -84 30 -102 169 -103 l131 -1 0 -137 c0 -206 78 -281 280
-270 168 10 211 43 230 180 20 132 -33 185 -162 166 l-91 -14 7 77 c6 72 11
77 96 98 50 12 89 33 88 46 -1 13 -3 37 -5 53 -7 65 -89 115 -168 102 l-75
-11 0 156 0 156 -66 24 c-106 38 -189 31 -216 -19z m175 -26 c35 -25 41 -50
41 -163 0 -144 27 -183 107 -158 52 17 139 -39 139 -88 0 -29 -21 -40 -102
-50 l-103 -14 12 -74 c7 -41 13 -91 13 -112 0 -32 12 -36 99 -28 123 12 144
-1 147 -89 3 -118 -50 -175 -162 -175 -167 0 -215 77 -222 355 l-2 65 -107
-12 c-129 -15 -198 14 -189 78 5 37 22 46 110 54 132 14 126 2 104 196 -25
224 10 288 115 215z"/>
<path d="M4690 1575 c6 -58 14 -231 16 -385 3 -154 12 -291 21 -305 18 -29
208 -34 251 -7 31 20 20 242 -20 390 -26 98 -8 118 108 115 88 -1 90 0 109 76
27 105 -50 190 -155 174 -42 -7 -76 0 -94 18 -18 18 -70 29 -138 29 l-108 0
10 -105z m204 25 c11 -41 74 -55 95 -21 37 59 130 -15 131 -104 0 -51 -6 -55
-85 -55 -123 -1 -142 -19 -128 -123 43 -306 41 -391 -11 -401 -122 -23 -136 1
-138 248 -2 124 -4 287 -6 361 l-4 135 68 0 c51 0 70 -10 78 -40z"/>
<path d="M4280 1500 c-22 -22 -40 -49 -40 -60 0 -27 -74 -25 -91 2 -26 42
-187 7 -251 -54 -119 -114 -127 -331 -17 -452 72 -79 262 -96 335 -29 39 34
43 34 93 2 117 -77 313 9 272 119 -12 30 -21 140 -21 245 0 243 -12 267 -141
267 -72 0 -110 -11 -139 -40z m207 -29 c6 -16 12 -113 14 -215 1 -102 4 -217
6 -256 5 -116 -194 -112 -211 5 -9 60 -53 67 -74 12 -31 -82 -89 -120 -164
-107 -60 11 -158 59 -158 78 0 3 -9 54 -20 113 -42 223 77 347 279 291 134
-38 161 -32 161 36 0 75 141 111 167 43z"/>
<path d="M4080 1286 c-99 -35 -111 -164 -15 -155 36 4 80 7 98 8 50 2 60 78
16 122 -41 41 -49 43 -99 25z m60 -77 c0 -19 -14 -29 -33 -25 -51 9 -57 56 -9
56 25 0 42 -13 42 -31z"/>
</g>
</svg>
